<mxfile host="app.diagrams.net" agent="Mozilla/5.0 (Macintosh; Intel Mac OS X 10_15_7) AppleWebKit/537.36 (KHTML, like Gecko) Chrome/134.0.0.0 Safari/537.36" version="26.1.0">
  <diagram name="Page-1" id="2u5XQ1TVpz-50JPjkIr8">
    <mxGraphModel dx="692" dy="411" grid="1" gridSize="10" guides="1" tooltips="1" connect="1" arrows="1" fold="1" page="1" pageScale="1" pageWidth="850" pageHeight="1100" math="0" shadow="0">
      <root>
        <mxCell id="0" />
        <mxCell id="1" parent="0" />
        <mxCell id="o_S3ILkpT6AB_PazXlzC-3" value="" style="rounded=0;whiteSpace=wrap;html=1;fillColor=none;dashed=1;dashPattern=8 8;" vertex="1" parent="1">
          <mxGeometry x="150" y="300" width="480" height="210" as="geometry" />
        </mxCell>
        <mxCell id="o_S3ILkpT6AB_PazXlzC-17" style="edgeStyle=orthogonalEdgeStyle;rounded=0;orthogonalLoop=1;jettySize=auto;html=1;entryX=0.5;entryY=0;entryDx=0;entryDy=0;startArrow=classic;startFill=1;" edge="1" parent="1" source="o_S3ILkpT6AB_PazXlzC-1" target="o_S3ILkpT6AB_PazXlzC-16">
          <mxGeometry relative="1" as="geometry">
            <Array as="points" />
          </mxGeometry>
        </mxCell>
        <mxCell id="o_S3ILkpT6AB_PazXlzC-1" value="Frontend&lt;div&gt;(React)&lt;/div&gt;" style="rounded=0;whiteSpace=wrap;html=1;" vertex="1" parent="1">
          <mxGeometry x="170" y="375" width="120" height="60" as="geometry" />
        </mxCell>
        <mxCell id="o_S3ILkpT6AB_PazXlzC-2" value="" style="rounded=0;whiteSpace=wrap;html=1;" vertex="1" parent="1">
          <mxGeometry x="370" y="313.75" width="240" height="182.5" as="geometry" />
        </mxCell>
        <mxCell id="o_S3ILkpT6AB_PazXlzC-4" value="NEXT.js" style="text;html=1;align=center;verticalAlign=middle;whiteSpace=wrap;rounded=0;" vertex="1" parent="1">
          <mxGeometry x="360" y="270" width="60" height="30" as="geometry" />
        </mxCell>
        <mxCell id="o_S3ILkpT6AB_PazXlzC-5" value="TRPC" style="endArrow=classic;startArrow=classic;html=1;rounded=0;exitX=1;exitY=0.5;exitDx=0;exitDy=0;entryX=0;entryY=0.5;entryDx=0;entryDy=0;" edge="1" parent="1" source="o_S3ILkpT6AB_PazXlzC-1" target="o_S3ILkpT6AB_PazXlzC-2">
          <mxGeometry y="15" width="50" height="50" relative="1" as="geometry">
            <mxPoint x="350" y="440" as="sourcePoint" />
            <mxPoint x="400" y="390" as="targetPoint" />
            <mxPoint as="offset" />
          </mxGeometry>
        </mxCell>
        <mxCell id="o_S3ILkpT6AB_PazXlzC-6" value="Backend" style="text;html=1;align=center;verticalAlign=middle;whiteSpace=wrap;rounded=0;" vertex="1" parent="1">
          <mxGeometry x="460" y="313.75" width="60" height="30" as="geometry" />
        </mxCell>
        <mxCell id="o_S3ILkpT6AB_PazXlzC-7" value="Main functionalities&lt;div&gt;&lt;br&gt;&lt;/div&gt;&lt;div&gt;&lt;br&gt;&lt;/div&gt;&lt;div&gt;&lt;br&gt;&lt;/div&gt;&lt;div&gt;&lt;br&gt;&lt;/div&gt;&lt;div&gt;&lt;br&gt;&lt;/div&gt;&lt;div&gt;&lt;br&gt;&lt;/div&gt;&lt;div&gt;&lt;br&gt;&lt;/div&gt;" style="rounded=0;whiteSpace=wrap;html=1;" vertex="1" parent="1">
          <mxGeometry x="380" y="343.75" width="100" height="142.5" as="geometry" />
        </mxCell>
        <mxCell id="o_S3ILkpT6AB_PazXlzC-8" value="Extra functionalities&lt;div&gt;&lt;br&gt;&lt;/div&gt;&lt;div&gt;&lt;br&gt;&lt;/div&gt;&lt;div&gt;&lt;br&gt;&lt;/div&gt;&lt;div&gt;&lt;br&gt;&lt;/div&gt;&lt;div&gt;&lt;br&gt;&lt;/div&gt;&lt;div&gt;&lt;br&gt;&lt;/div&gt;&lt;div&gt;&lt;br&gt;&lt;/div&gt;" style="rounded=0;whiteSpace=wrap;html=1;" vertex="1" parent="1">
          <mxGeometry x="500" y="343.75" width="100" height="140" as="geometry" />
        </mxCell>
        <mxCell id="o_S3ILkpT6AB_PazXlzC-10" value="Biometrics" style="rounded=0;whiteSpace=wrap;html=1;" vertex="1" parent="1">
          <mxGeometry x="510" y="383.75" width="80" height="40" as="geometry" />
        </mxCell>
        <mxCell id="o_S3ILkpT6AB_PazXlzC-11" value="&lt;div&gt;Speech to Text&lt;/div&gt;" style="rounded=0;whiteSpace=wrap;html=1;" vertex="1" parent="1">
          <mxGeometry x="510" y="436.25" width="80" height="40" as="geometry" />
        </mxCell>
        <mxCell id="o_S3ILkpT6AB_PazXlzC-14" value="Project management" style="rounded=0;whiteSpace=wrap;html=1;" vertex="1" parent="1">
          <mxGeometry x="390" y="383.75" width="80" height="40" as="geometry" />
        </mxCell>
        <mxCell id="o_S3ILkpT6AB_PazXlzC-15" value="&lt;div&gt;AI Generations&lt;/div&gt;" style="rounded=0;whiteSpace=wrap;html=1;" vertex="1" parent="1">
          <mxGeometry x="390" y="436.25" width="80" height="40" as="geometry" />
        </mxCell>
        <mxCell id="o_S3ILkpT6AB_PazXlzC-16" value="Browser Client&lt;div&gt;&lt;br&gt;&lt;/div&gt;&lt;div&gt;&lt;br&gt;&lt;/div&gt;&lt;div&gt;&lt;br&gt;&lt;/div&gt;" style="rounded=0;whiteSpace=wrap;html=1;" vertex="1" parent="1">
          <mxGeometry x="170" y="580" width="120" height="80" as="geometry" />
        </mxCell>
        <mxCell id="o_S3ILkpT6AB_PazXlzC-19" value="WebBluetoothAPI" style="rounded=0;whiteSpace=wrap;html=1;" vertex="1" parent="1">
          <mxGeometry x="175" y="610" width="110" height="40" as="geometry" />
        </mxCell>
        <mxCell id="o_S3ILkpT6AB_PazXlzC-23" value="" style="edgeStyle=orthogonalEdgeStyle;rounded=0;orthogonalLoop=1;jettySize=auto;html=1;" edge="1" parent="1" source="o_S3ILkpT6AB_PazXlzC-22" target="o_S3ILkpT6AB_PazXlzC-19">
          <mxGeometry relative="1" as="geometry" />
        </mxCell>
        <mxCell id="o_S3ILkpT6AB_PazXlzC-22" value="Muse" style="rounded=0;whiteSpace=wrap;html=1;" vertex="1" parent="1">
          <mxGeometry x="170" y="680" width="120" height="60" as="geometry" />
        </mxCell>
      </root>
    </mxGraphModel>
  </diagram>
</mxfile>
